<svg width="34" height="33" viewBox="0 0 34 33" fill="none" xmlns="http://www.w3.org/2000/svg">
<g clip-path="url(#clip0)">
<path d="M21.9114 17.6087C22.9682 17.6087 23.8982 17.0561 24.3773 16.2204L29.4218 7.47304C29.9432 6.58348 29.2668 5.47826 28.1959 5.47826H7.34139L6.01685 2.78261H1.40912V5.47826H4.2273L9.30003 15.7083L7.39776 18.997C6.36912 20.803 7.72185 23 9.86366 23H26.7728V20.3043H9.86366L11.4137 17.6087H21.9114ZM8.68003 8.17391H25.8005L21.9114 14.913H12.0196L8.68003 8.17391ZM9.86366 24.3478C8.31366 24.3478 7.05957 25.5609 7.05957 27.0435C7.05957 28.5261 8.31366 29.7391 9.86366 29.7391C11.4137 29.7391 12.6818 28.5261 12.6818 27.0435C12.6818 25.5609 11.4137 24.3478 9.86366 24.3478ZM23.9546 24.3478C22.4046 24.3478 21.1505 25.5609 21.1505 27.0435C21.1505 28.5261 22.4046 29.7391 23.9546 29.7391C25.5046 29.7391 26.7728 28.5261 26.7728 27.0435C26.7728 25.5609 25.5046 24.3478 23.9546 24.3478Z" fill="#90D911"/>
</g>
<defs>
<clipPath id="clip0">
<rect width="33.8182" height="32.3478" fill="white" transform="translate(0 0.086956)"/>
</clipPath>
</defs>
</svg>
