<svg width="573" height="634" viewBox="0 0 573 634" fill="none" xmlns="http://www.w3.org/2000/svg">
<g clip-path="url(#clip0_12918:708)">
<path d="M389.764 392.775C702.194 601.494 600.653 679.268 194.882 608.433C88.86 589.925 0 511.879 0 392.775C0 273.67 87.2517 177.116 194.882 177.116C302.512 177.116 290.62 326.541 389.764 392.775Z" fill="#3F3D56"/>
<path opacity="0.1" d="M417.697 596.109C485.863 596.109 541.122 591.173 541.122 585.083C541.122 578.994 485.863 574.057 417.697 574.057C349.531 574.057 294.272 578.994 294.272 585.083C294.272 591.173 349.531 596.109 417.697 596.109Z" fill="black"/>
<path opacity="0.1" d="M174.275 232.67C210.405 232.67 239.694 227.734 239.694 221.644C239.694 215.554 210.405 210.618 174.275 210.618C138.145 210.618 108.856 215.554 108.856 221.644C108.856 227.734 138.145 232.67 174.275 232.67Z" fill="black"/>
<path opacity="0.1" d="M170.847 248.787C142.777 248.782 115.279 256.705 91.5287 271.641C67.778 286.577 48.7438 307.917 36.6249 333.196C50.5557 317.83 67.5603 305.552 86.5401 297.158C105.52 288.763 126.052 284.437 146.811 284.46C228.967 284.46 295.571 350.961 295.571 432.989C295.605 455.18 290.636 477.095 281.033 497.109C305.903 469.81 319.66 434.219 319.606 397.316C319.606 315.288 253.002 248.787 170.847 248.787Z" fill="black"/>
<path opacity="0.3" d="M295.571 432.34C295.604 454.532 290.636 476.447 281.033 496.46C267.102 511.827 250.097 524.104 231.118 532.499C212.138 540.893 191.605 545.219 170.847 545.196C88.6908 545.196 22.0866 478.695 22.0866 396.667C22.053 374.476 27.0219 352.561 36.6248 332.547C50.5556 317.181 67.5603 304.904 86.54 296.509C105.52 288.114 126.052 283.789 146.811 283.812C228.967 283.812 295.571 350.312 295.571 432.34Z" fill="#63FF68"/>
<path d="M170.847 545.926C88.417 545.926 21.3555 478.969 21.3555 396.668C21.2956 374.364 26.2903 352.335 35.9657 332.232C48.1443 306.829 67.2719 285.384 91.1392 270.375C115.007 255.365 142.64 247.403 170.847 247.409C253.276 247.409 320.337 314.366 320.337 396.668C320.339 416.269 316.473 435.678 308.961 453.788C301.449 471.897 290.437 488.352 276.555 502.212C262.674 516.072 246.193 527.066 228.056 534.567C209.918 542.067 190.478 545.927 170.847 545.926ZM170.847 248.869C114.207 248.869 61.7803 281.838 37.284 332.863C27.7034 352.77 22.7577 374.582 22.8174 396.668C22.8174 478.164 89.2229 544.466 170.847 544.466C190.286 544.467 209.536 540.645 227.496 533.218C245.457 525.791 261.776 514.905 275.522 501.18C289.268 487.455 300.172 471.162 307.61 453.229C315.049 435.297 318.877 416.077 318.875 396.668C318.876 315.171 252.47 248.869 170.847 248.869V248.869Z" fill="white"/>
<path d="M511.183 547.812C500.379 561.92 501.615 580.987 501.615 580.987C501.615 580.987 520.367 577.18 531.172 563.071C541.976 548.963 540.741 529.896 540.741 529.896C540.741 529.896 521.988 533.703 511.183 547.812Z" fill="#D0CDE1"/>
<path d="M518.264 550.98C516.167 568.616 501.974 581.432 501.974 581.432C501.974 581.432 491.181 565.655 493.277 548.019C495.374 530.383 509.567 517.566 509.567 517.566C509.567 517.566 520.36 533.344 518.264 550.98Z" fill="#63FF68"/>
<path d="M126.326 137.851C160.227 137.851 187.709 110.412 187.709 76.5635C187.709 42.7152 160.227 15.2757 126.326 15.2757C92.4249 15.2757 64.9426 42.7152 64.9426 76.5635C64.9426 110.412 92.4249 137.851 126.326 137.851Z" fill="#FF6584"/>
<path d="M259.41 139.05C259.44 200.269 222.999 221.659 178.04 221.681C176.995 221.681 175.956 221.67 174.922 221.647C172.838 221.604 170.776 221.51 168.736 221.366C128.156 218.517 96.6166 196.062 96.5889 139.129C96.5602 80.2107 171.944 5.81993 177.597 0.319433C177.602 0.319433 177.602 0.319432 177.607 0.314433C177.822 0.104798 177.932 0 177.932 0C177.932 0 259.38 77.8369 259.41 139.05Z" fill="#63FF68"/>
<path d="M175.072 212.318L204.827 170.766L174.999 216.878L174.922 221.647C172.838 221.604 170.776 221.51 168.736 221.366L171.914 160.121L171.888 159.647L171.943 159.557L172.245 153.77L142.298 107.573L172.333 149.435L172.409 150.662L174.81 104.389L149.168 56.6477L175.12 96.2568L177.597 0.319425L177.607 0.000152588L177.607 0.314425L177.224 75.971L202.707 45.9655L177.117 82.4865L176.463 123.919L200.263 84.1466L176.371 130.011L176.007 153.05L210.547 97.6864L175.876 161.087L175.072 212.318Z" fill="#3F3D56"/>
<path d="M418.793 174.125C410.991 160.962 395.554 160.348 395.554 160.348C395.554 160.348 380.512 158.428 370.863 178.476C361.869 197.162 349.456 215.204 368.865 219.578L372.37 208.684L374.541 220.389C377.305 220.588 380.077 220.635 382.845 220.531C403.63 219.861 423.425 220.727 422.787 213.28C421.94 203.38 426.301 186.791 418.793 174.125Z" fill="#2F2E41"/>
<path d="M384.371 297.643L386.378 317.682L432.874 312.672L433.878 297.643H384.371Z" fill="#A0616A"/>
<path d="M379.353 308.664L378.015 320.354C378.015 320.354 362.628 341.729 363.966 378.467C365.304 415.206 342.892 578.525 358.949 579.861C375.005 581.197 403.772 583.201 405.11 578.191C406.448 573.182 409.124 383.143 409.124 383.143C409.124 383.143 416.149 578.428 428.191 579.096C440.234 579.764 480.709 581.1 480.709 576.091C480.709 571.081 445.251 347.407 445.251 347.407L439.565 328.703L433.878 305.658C433.878 305.658 398.42 311.67 388.72 309.332C379.019 306.994 379.353 308.664 379.353 308.664Z" fill="#2F2E41"/>
<path d="M395.41 216.15C407.233 216.15 416.818 206.58 416.818 194.775C416.818 182.97 407.233 173.4 395.41 173.4C383.586 173.4 374.001 182.97 374.001 194.775C374.001 206.58 383.586 216.15 395.41 216.15Z" fill="#A0616A"/>
<path d="M432.874 230.178L428.81 236.082L426.208 239.86L421.836 246.209L400.093 247.879C400.093 247.879 394.811 246.175 388.716 243.687C386.465 242.765 384.1 241.737 381.852 240.645C373.132 236.416 366.134 231.256 374.001 227.84C375.398 227.241 376.74 226.521 378.012 225.689C379.169 224.934 380.246 224.063 381.227 223.09C383.242 221.074 384.734 218.597 385.574 215.874C386.413 213.152 386.574 210.265 386.044 207.466L407.117 204.461C406.505 209.798 411.821 215.619 417.778 220.372C419.735 221.938 421.765 223.384 423.676 224.66C428.683 228.007 432.874 230.178 432.874 230.178Z" fill="#A0616A"/>
<path d="M404.107 236.523C404.107 236.523 383.535 233.016 378.852 225.669C378.852 225.669 358.614 228.174 360.287 238.861C361.959 249.549 378.684 307.996 378.684 307.996C378.684 307.996 420.498 299.981 435.885 305.992L445.251 231.513C445.251 231.513 441.906 224.166 435.551 226.17C429.195 228.174 426.686 226.337 426.686 226.337C426.686 226.337 419.494 236.523 404.107 236.523Z" fill="#D0CDE1"/>
<path d="M422.839 353.752C422.839 353.752 437.223 369.784 429.195 372.456C421.167 375.128 411.466 361.768 411.466 361.768L422.839 353.752Z" fill="#A0616A"/>
<path d="M427.522 355.088C427.522 355.088 415.815 363.104 420.163 368.448C424.512 373.792 439.565 363.772 439.565 361.768C439.565 359.764 427.522 355.088 427.522 355.088Z" fill="#A0616A"/>
<path d="M398.755 311.67L389.054 313.34L382.698 266.248C383.065 257.704 382.782 249.145 381.852 240.645C381.143 234.967 379.959 229.51 378.012 225.689C379.169 224.934 380.246 224.063 381.227 223.09C383.555 226.774 387.803 234.576 388.716 243.687C388.955 245.969 388.956 248.269 388.719 250.551C387.047 266.248 387.381 269.254 387.381 269.254L398.755 311.67Z" fill="#2F2E41"/>
<path d="M376.343 228.508C376.343 228.508 360.621 224.166 359.283 233.517C357.945 242.869 359.617 266.916 363.297 275.934C366.977 284.951 379.688 314.342 379.688 314.342C379.688 314.342 402.769 343.733 403.772 350.747C404.776 357.76 409.793 365.108 409.793 365.108L425.85 354.754L394.406 301.651L380.691 264.912C380.691 264.912 386.378 231.513 376.343 228.508Z" fill="#D0CDE1"/>
<path d="M437.892 229.844L445.251 231.513C445.251 231.513 451.941 260.236 449.265 275.6C446.589 290.963 446.255 296.307 446.255 296.307L443.913 340.059C443.913 340.059 444.582 368.114 439.899 363.772C435.216 359.43 425.85 357.426 425.85 357.426C425.85 357.426 426.853 345.069 430.533 342.063C430.533 342.063 434.881 319.018 432.205 308.998C429.529 298.979 437.892 229.844 437.892 229.844Z" fill="#D0CDE1"/>
<path d="M440.568 262.24L432.038 311.503L426.853 309.332L435.885 262.24L426.208 239.86L417.778 220.372C419.735 221.938 421.765 223.384 423.676 224.66L428.81 236.082L440.568 262.24Z" fill="#2F2E41"/>
<path d="M415.343 172.856L400.093 164.88L379.033 168.143L374.676 187.358L385.522 186.941L388.552 179.882V186.825L393.557 186.633L396.462 175.394L398.278 187.358L416.07 186.995L415.343 172.856Z" fill="#2F2E41"/>
<path d="M385.217 585.083C390.957 585.083 395.61 583.341 395.61 581.192C395.61 579.042 390.957 577.3 385.217 577.3C379.476 577.3 374.823 579.042 374.823 581.192C374.823 583.341 379.476 585.083 385.217 585.083Z" fill="#2F2E41"/>
<path d="M455.374 585.083C461.115 585.083 465.768 583.341 465.768 581.192C465.768 579.042 461.115 577.3 455.374 577.3C449.634 577.3 444.98 579.042 444.98 581.192C444.98 583.341 449.634 585.083 455.374 585.083Z" fill="#2F2E41"/>
<path d="M192.635 473.489C182.003 480.397 169.751 484.417 157.088 485.154C144.425 485.89 131.788 483.317 120.425 477.689L122.034 474.412C135.73 481.13 151.255 483.182 166.23 480.253C181.206 477.324 194.808 469.576 204.954 458.194C215.1 446.813 221.231 432.426 222.408 417.235C223.586 402.044 219.745 386.886 211.473 374.081C203.202 361.277 190.956 351.532 176.61 346.337C162.264 341.142 146.609 340.785 132.04 345.319C117.471 349.853 104.791 359.029 95.9421 371.442C87.093 383.855 82.5618 398.822 83.0422 414.051L79.389 414.163C78.9844 401.349 81.9505 388.653 87.9918 377.341C94.033 366.028 102.938 356.495 113.82 349.689C124.702 342.884 137.18 339.046 150.011 338.557C162.842 338.067 175.577 340.944 186.947 346.901C198.317 352.857 207.924 361.685 214.812 372.504C221.7 383.324 225.628 395.757 226.203 408.564C226.779 421.371 223.982 434.105 218.092 445.497C212.202 456.888 203.425 466.54 192.635 473.489Z" fill="white"/>
<path d="M159.576 407.501C148.769 409.889 134.386 411.345 123.906 409.825L137.062 419.828L100.231 443.546L102.212 446.612L139.043 422.895L142.746 438.99C145.681 428.831 152.942 416.349 159.576 407.501Z" fill="white"/>
</g>
<defs>
<clipPath id="clip0_12918:708">
<rect width="573" height="634" fill="white"/>
</clipPath>
</defs>
</svg>
