<svg width="29" height="29" viewBox="0 0 29 29" fill="none" xmlns="http://www.w3.org/2000/svg">
<path d="M14.1667 0C6.34667 0 0 6.34667 0 14.1667C0 21.9867 6.34667 28.3333 14.1667 28.3333C21.9867 28.3333 28.3333 21.9867 28.3333 14.1667C28.3333 6.34667 21.9867 0 14.1667 0ZM7.1825 23.0633C7.79167 21.7883 11.5033 20.5417 14.1667 20.5417C16.83 20.5417 20.5558 21.7883 21.1508 23.0633C19.2242 24.5933 16.8017 25.5 14.1667 25.5C11.5317 25.5 9.10917 24.5933 7.1825 23.0633ZM23.1767 21.0092C21.1508 18.5442 16.235 17.7083 14.1667 17.7083C12.0983 17.7083 7.1825 18.5442 5.15667 21.0092C3.71167 19.1108 2.83333 16.745 2.83333 14.1667C2.83333 7.91917 7.91917 2.83333 14.1667 2.83333C20.4142 2.83333 25.5 7.91917 25.5 14.1667C25.5 16.745 24.6217 19.1108 23.1767 21.0092ZM14.1667 5.66667C11.4183 5.66667 9.20833 7.87667 9.20833 10.625C9.20833 13.3733 11.4183 15.5833 14.1667 15.5833C16.915 15.5833 19.125 13.3733 19.125 10.625C19.125 7.87667 16.915 5.66667 14.1667 5.66667ZM14.1667 12.75C12.9908 12.75 12.0417 11.8008 12.0417 10.625C12.0417 9.44917 12.9908 8.5 14.1667 8.5C15.3425 8.5 16.2917 9.44917 16.2917 10.625C16.2917 11.8008 15.3425 12.75 14.1667 12.75Z" fill="#90D911"/>
</svg>
