<svg width="665" height="397" viewBox="0 0 665 397" fill="none" xmlns="http://www.w3.org/2000/svg">
<g clip-path="url(#clip0_12918_553)">
<path d="M509.14 392.511C500.626 385.327 495.454 373.979 496.811 362.932C498.167 351.884 506.567 341.728 517.463 339.382C528.358 337.036 540.779 343.53 544.088 354.158C545.91 333.668 548.008 312.319 558.919 294.869C568.797 279.068 585.907 267.763 604.451 265.74C622.995 263.717 642.518 271.357 654.083 285.972C665.648 300.587 668.48 321.834 660.38 338.613C654.413 350.973 643.42 360.172 631.902 367.656C594.684 391.635 550.045 401.387 506.199 395.116L509.14 392.511Z" fill="#F2F2F2"/>
<path d="M635.746 271.78C620.445 284.225 606.408 298.143 593.839 313.334C574.167 337.026 558.248 363.589 546.637 392.097C545.787 394.177 549.169 395.082 550.01 393.026C569.007 346.693 599.335 305.856 638.219 274.25C639.965 272.83 637.478 270.372 635.746 271.78Z" fill="white"/>
<path d="M214.074 390.559C225.768 380.692 232.871 365.105 231.008 349.932C229.145 334.758 217.608 320.809 202.643 317.587C187.677 314.365 170.618 323.284 166.072 337.882C163.571 309.738 160.688 280.415 145.703 256.448C132.135 234.746 108.634 219.217 83.1641 216.439C57.6945 213.661 30.8783 224.154 14.9939 244.227C-0.890562 264.301 -4.7798 293.484 6.34525 316.53C14.5407 333.507 29.6396 346.142 45.4594 356.421C95.9303 389.215 158.539 402.892 218.113 394.137" fill="#F2F2F2"/>
<path d="M40.1803 224.735C61.1959 241.828 80.4754 260.945 97.7402 281.809C115.008 302.652 130.21 325.118 143.133 348.892C150.356 362.229 156.846 375.948 162.571 389.991C163.739 392.848 159.093 394.091 157.939 391.266C147.797 366.509 135.25 342.804 120.478 320.492C105.777 298.26 88.9515 277.504 70.237 258.516C59.652 247.782 48.484 237.637 36.7835 228.127C34.3852 226.177 37.8019 222.801 40.1803 224.735L40.1803 224.735Z" fill="white"/>
<path d="M477.348 396.131H198.353V110.291C198.353 49.4761 247.901 0 308.804 0H366.897C427.8 0 477.348 49.4761 477.348 110.291V396.131Z" fill="#F2F2F2"/>
<path d="M419.256 396.131H198.353V110.291C198.292 86.988 205.682 64.2742 219.447 45.4564C219.954 44.7658 220.46 44.0841 220.982 43.4099C227.64 34.6905 235.563 27.0115 244.49 20.6263C244.994 20.2599 245.5 19.8999 246.014 19.5399C253.483 14.3783 261.564 10.1588 270.07 6.97741C270.575 6.78622 271.09 6.59466 271.604 6.41092C279.297 3.66935 287.273 1.7914 295.382 0.811717C295.885 0.743138 296.401 0.689475 296.917 0.63581C304.82 -0.207949 312.791 -0.207949 320.693 0.63581C321.208 0.689475 321.724 0.743132 322.233 0.812451C330.34 1.79219 338.313 3.66992 346.005 6.41095C346.519 6.59469 347.034 6.78625 347.54 6.97781C355.942 10.119 363.927 14.2756 371.317 19.3547C371.831 19.7069 372.345 20.0669 372.851 20.4269C377.854 23.9934 382.554 27.9667 386.903 32.3062C390.39 35.787 393.639 39.4973 396.629 43.4122C397.149 44.0842 397.655 44.7658 398.162 45.4553C411.927 64.2733 419.317 86.9876 419.256 110.291V396.131Z" fill="#CCCCCC"/>
<path d="M401.293 268.285C408.047 268.285 413.523 262.818 413.523 256.073C413.523 249.329 408.047 243.861 401.293 243.861C394.539 243.861 389.063 249.329 389.063 256.073C389.063 262.818 394.539 268.285 401.293 268.285Z" fill="#63FF68"/>
<path d="M454.492 387.57H445.121L440.663 351.477L454.494 351.477L454.492 387.57Z" fill="#FFB8B8"/>
<path d="M438.427 384.896H456.5V396.258H427.048C427.048 394.766 427.343 393.289 427.915 391.91C428.486 390.531 429.325 389.279 430.381 388.224C431.438 387.169 432.692 386.332 434.073 385.761C435.453 385.19 436.933 384.896 438.427 384.896Z" fill="#2F2E41"/>
<path d="M501.119 387.57H491.748L487.289 351.477L501.12 351.477L501.119 387.57Z" fill="#FFB8B8"/>
<path d="M485.054 384.896H503.126V396.258H473.675C473.675 394.766 473.969 393.289 474.541 391.91C475.113 390.531 475.951 389.279 477.008 388.224C478.064 387.169 479.319 386.332 480.699 385.761C482.08 385.19 483.56 384.896 485.054 384.896Z" fill="#2F2E41"/>
<path d="M407.483 258.492C406.809 257.501 406.36 256.373 406.17 255.19C405.979 254.006 406.051 252.795 406.379 251.642C406.708 250.49 407.286 249.423 408.072 248.517C408.859 247.611 409.834 246.889 410.93 246.4L442.786 158.727L458.461 167.269L422.089 251.052C422.789 252.946 422.769 255.03 422.033 256.909C421.297 258.789 419.896 260.333 418.095 261.251C416.295 262.168 414.22 262.393 412.264 261.885C410.308 261.377 408.607 260.17 407.483 258.492Z" fill="#FFB8B8"/>
<path d="M496.332 274.966C495.29 274.37 494.393 273.553 493.702 272.573C493.011 271.593 492.543 270.473 492.332 269.293C492.122 268.113 492.172 266.901 492.481 265.743C492.79 264.585 493.35 263.508 494.121 262.589L484.252 169.846L502.091 170.66L506.192 261.885C507.652 263.28 508.549 265.162 508.713 267.173C508.877 269.185 508.296 271.186 507.081 272.799C505.865 274.411 504.1 275.523 502.119 275.922C500.138 276.322 498.079 275.982 496.332 274.966Z" fill="#FFB8B8"/>
<path d="M467.874 142.488C478.242 142.488 486.648 134.095 486.648 123.741C486.648 113.388 478.242 104.995 467.874 104.995C457.506 104.995 449.1 113.388 449.1 123.741C449.1 134.095 457.506 142.488 467.874 142.488Z" fill="#FFB8B8"/>
<path d="M496.212 253.874H439.613L439.681 253.434C439.783 252.777 449.768 187.459 442.404 166.09C441.665 163.99 441.73 161.691 442.586 159.636C443.442 157.581 445.03 155.915 447.043 154.959H447.043C457.57 150.009 477.776 143.914 494.831 158.706C497.341 160.919 499.301 163.684 500.556 166.783C501.811 169.882 502.326 173.231 502.062 176.563L496.212 253.874Z" fill="#63FF68"/>
<path d="M450.484 197.112L425.002 191.95L436.946 163.686C437.661 160.949 439.434 158.606 441.876 157.172C444.318 155.739 447.23 155.33 449.974 156.038C452.717 156.745 455.067 158.509 456.509 160.945C457.951 163.38 458.366 166.287 457.665 169.027L450.484 197.112Z" fill="#63FF68"/>
<path d="M483.119 206.696L481.587 171.631C480.425 165.04 484.204 158.808 490.016 157.79C495.829 156.775 501.506 161.347 502.673 167.987L508.431 200.752L483.119 206.696Z" fill="#63FF68"/>
<path d="M494.329 249.676C503.436 284.31 504.429 328.344 501.973 376.377L489.743 374.85L467.576 283.259L455.346 376.377L441.588 375.614C437.477 325.216 433.475 281.95 440.059 253.492L494.329 249.676Z" fill="#2F2E41"/>
<path d="M480.244 138.229C476.742 141.954 470.237 139.955 469.781 134.865C469.745 134.47 469.748 134.073 469.789 133.678C470.024 131.424 471.329 129.377 471.016 126.997C470.946 126.404 470.725 125.84 470.374 125.356C467.583 121.625 461.032 127.026 458.398 123.647C456.783 121.576 458.681 118.314 457.442 115.999C455.806 112.943 450.961 114.451 447.923 112.777C444.542 110.915 444.744 105.736 446.97 102.586C449.683 98.7438 454.442 96.6937 459.141 96.3983C463.84 96.1028 468.507 97.3712 472.894 99.0784C477.878 101.018 482.821 103.699 485.888 108.075C489.619 113.398 489.977 120.553 488.112 126.776C486.977 130.562 483.104 135.187 480.244 138.229Z" fill="#2F2E41"/>
<path d="M642.055 396.622H77.7267C77.4858 396.621 77.255 396.525 77.0849 396.355C76.9147 396.185 76.8192 395.954 76.8192 395.713C76.8192 395.473 76.9147 395.242 77.0849 395.072C77.255 394.901 77.4858 394.805 77.7267 394.805H642.055C642.296 394.805 642.527 394.901 642.697 395.072C642.867 395.242 642.962 395.473 642.962 395.713C642.962 395.954 642.867 396.185 642.697 396.355C642.527 396.525 642.296 396.621 642.055 396.622Z" fill="#3F3D56"/>
<path d="M358.489 313.318H259.121C257.812 313.325 256.554 312.813 255.623 311.895C254.691 310.977 254.162 309.728 254.152 308.421V86.9468C254.162 85.6401 254.691 84.3907 255.623 83.4727C256.554 82.5548 257.812 82.0432 259.121 82.0502H358.489C359.797 82.0432 361.055 82.5548 361.987 83.4727C362.918 84.3907 363.447 85.6401 363.457 86.9468V308.421C363.447 309.728 362.918 310.977 361.987 311.895C361.055 312.813 359.797 313.325 358.489 313.318Z" fill="white"/>
<path d="M363.457 153.712H254.152V155.239H363.457V153.712Z" fill="#CCCCCC"/>
<path d="M363.839 240.808H254.534V242.335H363.839V240.808Z" fill="#CCCCCC"/>
<path d="M290.078 82.0502H288.549V314.081H290.078V82.0502Z" fill="#CCCCCC"/>
<path d="M328.296 82.0502H326.767V314.081H328.296V82.0502Z" fill="#CCCCCC"/>
</g>
<defs>
<clipPath id="clip0_12918_553">
<rect width="665" height="397" fill="white"/>
</clipPath>
</defs>
</svg>
